<?xml version="1.0" encoding="utf-8"?>
<!-- Generator: Adobe Illustrator 15.0.0, SVG Export Plug-In  -->
<!DOCTYPE svg PUBLIC "-//W3C//DTD SVG 1.1//EN" "http://www.w3.org/Graphics/SVG/1.1/DTD/svg11.dtd" [
	<!ENTITY ns_flows "http://ns.adobe.com/Flows/1.0/">
]>
<svg version="1.1"
	 xmlns="http://www.w3.org/2000/svg" xmlns:xlink="http://www.w3.org/1999/xlink" xmlns:a="http://ns.adobe.com/AdobeSVGViewerExtensions/3.0/"
	 x="0px" y="0px" width="545px" height="780px" viewBox="-53 -14.8 545 780" enable-background="new -53 -14.8 545 780"
	 xml:space="preserve">
<defs>
</defs>
<g>
	<path fill="#60BA3E" d="M267.1,172.2c-14.3-8.5-30.6-17-45.4-22.2V55.7L276.6,97l-5.4,31.4l8.7,5.8L296.8,85l-104-85v164.8
		c25.2,3.9,49.7,11.6,70.1,18.4L267.1,172.2z"/>
</g>
<g>
	<path fill="#60BA3E" d="M346.3,131.9L307,194.7c0,0,46.2,30.1,67.9,46.6c32.9-14.4,64.1-32,64.1-32L346.3,131.9z M331,187.9
		l23.1-32.7l60.4,49.4c0,0-17,8.5-38,18.1C362.4,211.9,331,187.9,331,187.9z"/>
</g>
<g>
	<path fill="#60BA3E" d="M347.8,319.4c-12.7,11.4-22.6,18.4-43.1,28.5l45.6,102.3l60.9-105.2L347.8,319.4z M334.1,361.4
		c9-5.3,17.3-12.3,23.4-19.6l33.8,15.6l-32.6,55.2L334.1,361.4z"/>
</g>
<g>
	<path fill="#60BA3E" d="M266.5,364.1l7.6,27.6c-18.2,10.7-40.8,11.6-40.8,11.6v249.4L296.8,551l-21-94.5l13.4-7.2l29.3,110.6
		L201.9,750.3V376.9C228.2,374.8,247.1,370.9,266.5,364.1z"/>
</g>
<g>
	<path fill="#60BA3E" d="M0,274.7c0,0,25.6,18,47.4,23.1c15.7-7.7,28.9-20.4,55.8-34.1c33.6-17.1,66.6-17.4,86.1-17.2
		c23.1,0.3,53.8,2.1,90.1,16.9c36.3,14.9,48.4,22.4,64,27.9c17.9-8,26.4-18.6,26.4-18.6s-14.6-0.1-17.7,0c-6.3-4-28.2-17.7-56.7-32
		c-30-15.1-47-26.3-104.7-28.5c-57.6-2.2-81.8,16.2-115.1,33.4c-24.8,12.8-33.8,19.7-51,27.9C20.1,274.1,0,274.7,0,274.7z"/>
</g>
<g>
	<path fill="#60BA3E" d="M131.3,282.9c0,0,26.5,28.1,61.1,26.8c35.5-1.3,60.4-27.8,60.4-27.8l43.7,19.4c0,0-43.3,33.1-101,32.9
		C135.1,334,94.4,307,94.4,307S114.4,292.7,131.3,282.9z"/>
</g>
</svg>
