<?xml version="1.0" encoding="utf-8"?>
<!-- Generator: Adobe Illustrator 15.0.0, SVG Export Plug-In  -->
<!DOCTYPE svg PUBLIC "-//W3C//DTD SVG 1.1//EN" "http://www.w3.org/Graphics/SVG/1.1/DTD/svg11.dtd" [
	<!ENTITY ns_flows "http://ns.adobe.com/Flows/1.0/">
]>
<svg version="1.1"
	 xmlns="http://www.w3.org/2000/svg" xmlns:xlink="http://www.w3.org/1999/xlink" xmlns:a="http://ns.adobe.com/AdobeSVGViewerExtensions/3.0/"
	 x="0px" y="0px" width="512px" height="512px" viewBox="-3.176 -70.634 512 512" enable-background="new -3.176 -70.634 512 512"
	 xml:space="preserve">
<defs>
</defs>
<path fill="#3896BC" d="M123.768,351.651c-57.724,0-104.687-46.958-104.687-104.687c0-41.209,24.746-78.318,61.88-95.28
	C76.697,104,96.58,63.49,138.004,36.406c16.584-10.851,40.65-17.325,64.376-17.325c24.854,0,68.47,7.318,99.553,52.683
	c11.543-5.39,23.813-8.181,36.261-8.181c25.893,0,44.556,11.567,51.374,16.542c30.775,22.445,36.438,52.516,36.318,72.025
	c37.8,17.419,60.682,52.563,60.682,94.814c0,57.729-46.957,104.687-104.686,104.687H123.768z"/>
<path fill="#3896BC" d="M202.38,38.162c32.451,0.004,69.775,14.064,92.955,59.908c14.618-11.325,29.462-15.406,42.858-15.406
	c16.688,0,31.147,6.327,40.139,12.881c29.069,21.201,30.605,51.565,27.317,69.235c38.022,11.884,61.837,43.165,61.837,82.185
	c0,47.293-38.321,85.605-85.604,85.605H123.768c-47.284,0-85.604-38.313-85.604-85.605c0-39.746,27.252-72.603,63.858-82.697
	c-11.851-60.146,19.324-94.172,46.427-111.893C159.982,44.833,180.023,38.162,202.38,38.162 M211.422,207.89
	c6.568-17.046,23.274-28.496,41.544-28.496c17.643,0,33.248,10.239,40.469,26.167l-15.158,6.057l38.759,22.359l11.33-42.369
	l-14.189,5.665c-10.623-24.447-34.409-40.137-61.21-40.137c-27.41,0-52.45,17.171-62.321,42.728L211.422,207.89 M177.289,255.667
	l14.302-5.534c10.426,24.354,34.775,40.566,61.375,40.566c27.509,0,51.873-16.51,62.065-42.038l-20.674-8.255
	c-6.802,17.031-23.031,28.044-41.392,28.044c-17.478,0-33.401-10.547-40.538-26.367l14.954-5.777l-38.358-21.875L177.289,255.667
	 M202.384,0l-0.004,38.162L202.384,0C175.1,0,147.13,7.64,127.56,20.436C83.555,49.207,60.668,91.11,61.255,140.485
	C24.053,162.512,0,202.732,0,246.965c0,68.247,55.521,123.768,123.768,123.768h258.114c68.247,0,123.767-55.521,123.767-123.768
	c0-45.095-23.19-84.407-61.008-106.475c-2.852-30.005-18.168-57.071-43.817-75.779c-17.628-12.844-40.445-20.209-62.63-20.209
	c-10.137,0-20.152,1.496-29.842,4.421C281.631,17.459,244.511,0.004,202.384,0z"/>
<path fill="#F2F2F2" d="M202.38,38.162c32.451,0.004,69.775,14.064,92.955,59.908c14.618-11.325,29.462-15.406,42.858-15.406
	c16.688,0,31.147,6.327,40.139,12.881c29.069,21.201,30.605,51.565,27.317,69.235c38.022,11.884,61.837,43.165,61.837,82.185
	c0,47.293-38.321,85.605-85.604,85.605H123.768c-47.284,0-85.604-38.313-85.604-85.605c0-39.746,27.252-72.603,63.858-82.697
	c-11.851-60.146,19.324-94.172,46.427-111.893C159.982,44.833,180.023,38.162,202.38,38.162 M211.422,207.89
	c6.568-17.046,23.274-28.496,41.544-28.496c17.643,0,33.248,10.239,40.469,26.167l-15.158,6.057l38.759,22.359l11.33-42.369
	l-14.189,5.665c-10.623-24.447-34.409-40.137-61.21-40.137c-27.41,0-52.45,17.171-62.321,42.728L211.422,207.89 M177.289,255.667
	l14.302-5.534c10.426,24.354,34.775,40.566,61.375,40.566c27.509,0,51.873-16.51,62.065-42.038l-20.674-8.255
	c-6.802,17.031-23.031,28.044-41.392,28.044c-17.478,0-33.401-10.547-40.538-26.367l14.954-5.777l-38.358-21.875L177.289,255.667
	 M202.38,19.081v19.081V19.081c-23.722,0-47.787,6.475-64.376,17.325C96.58,63.49,76.697,104,80.961,151.685
	c-37.134,16.962-61.88,54.071-61.88,95.28c0,57.729,46.963,104.687,104.687,104.687h258.114
	c57.729,0,104.686-46.958,104.686-104.687c0-42.252-22.882-77.396-60.682-94.814c0.12-19.505-5.543-49.58-36.309-72.021
	c-6.828-4.979-25.491-16.547-51.384-16.547c-12.447,0-24.718,2.791-36.261,8.181C270.85,26.404,227.233,19.085,202.38,19.081z"/>
</svg>
