<?xml version="1.0" encoding="utf-8"?>
<!-- Generator: Adobe Illustrator 15.0.0, SVG Export Plug-In  -->
<!DOCTYPE svg PUBLIC "-//W3C//DTD SVG 1.1//EN" "http://www.w3.org/Graphics/SVG/1.1/DTD/svg11.dtd" [
	<!ENTITY ns_flows "http://ns.adobe.com/Flows/1.0/">
]>
<svg version="1.1"
	 xmlns="http://www.w3.org/2000/svg" xmlns:xlink="http://www.w3.org/1999/xlink" xmlns:a="http://ns.adobe.com/AdobeSVGViewerExtensions/3.0/"
	 x="0px" y="0px" width="545px" height="780px" viewBox="-19 -11.7 545 780" enable-background="new -19 -11.7 545 780"
	 xml:space="preserve">
<defs>
</defs>
<g>
	<polygon fill="#1F80AA" points="282,0 317.4,29 478.3,29 478.3,507.2 253.5,716.7 28.8,507.2 28.8,29 189.6,29 225,0 0,0 0,520.3 
		253.5,756.5 507,520.3 507,0 	"/>
</g>
<g>
	<path fill="#1F80AA" d="M304.5,277v-12.9l137.3-103.8V69.7H298.9l-45.4-35.8l-45.4,35.8H65.2v90.7l137.3,103.8V277h24.8v22.7h-25
		v28.5h25v169.5H160v-28.5h36v-41.8h-81.9v98.4l85.3,79.5v-35.6h27.9v61.6l26.3,24.5l26.3-24.5V328.2h25v-28.5h-25V277H304.5z
		 M253.5,65.6l31,24.5l-31,32.5l-31-32.5L253.5,65.6z M253.5,205.3l-47.2,13.3l-102.3-77.3v-32.7h103.7l45.9,48.1l45.9-48.1h103.7
		v32.7l-102.3,77.3L253.5,205.3z"/>
</g>
</svg>
